# xmcd
#
# Track frame offsets: 
#        150
#        17516
#        35026
#        53518
#        73288
#        91779
#        111042
#        128704
#        147710
#        166532
#
# Disc length: 2507 seconds
#
# Revision: 0
# Processed by: cddbd v1.5.2PL0 Copyright (c) Steve Scherf et al.
# Submitted via: ExactAudioCopy v1.0b4
#
DISCID=8009c90a
DTITLE=Merve Özbey - Yaş Hikayesi
DYEAR=1900
DGENRE=
TTITLE0=Yaş Hikayesi
TTITLE1=Topsuz Tüfeksiz
TTITLE2=Allah'a Emanet Ol
TTITLE3=Ödeştik
TTITLE4=Usta
TTITLE5=Yağmur
TTITLE6=Vicdanın Affetsin
TTITLE7=Allah'a Emanet Ol Remix by Gökhan Suer
TTITLE8=Topsuz Tüfeksiz Remix by DigiHead
TTITLE9=Helal Ettim Remix by DJ Eyüp
EXTD=
EXTT0=
EXTT1=
EXTT2=
EXTT3=
EXTT4=
EXTT5=
EXTT6=
EXTT7=
EXTT8=
EXTT9=
PLAYORDER=
